<?xml version="1.0" encoding="utf-8"?>
<!-- Generator: Adobe Illustrator 19.1.0, SVG Export Plug-In . SVG Version: 6.00 Build 0)  -->
<!DOCTYPE svg PUBLIC "-//W3C//DTD SVG 1.1//EN" "http://www.w3.org/Graphics/SVG/1.1/DTD/svg11.dtd">
<svg version="1.1" id="Layer_1" xmlns="http://www.w3.org/2000/svg" xmlns:xlink="http://www.w3.org/1999/xlink" x="0px" y="0px"
	 viewBox="0 0 250 190" style="enable-background:new 0 0 250 190;" xml:space="preserve">
<style type="text/css">
	.st0{fill-rule:evenodd;clip-rule:evenodd;fill:#E3E3E3;}
	.st1{fill:#E3E3E3;}
	.st2{fill:#C7C7C7;}
	
		.st3{fill-rule:evenodd;clip-rule:evenodd;fill:none;stroke:#919190;stroke-width:2.7399;stroke-miterlimit:10;stroke-dasharray:2.7399,2.7399;}
	.st4{fill-rule:evenodd;clip-rule:evenodd;fill:#C7C7C7;}
	.st5{fill-rule:evenodd;clip-rule:evenodd;fill:#AEAEAE;stroke:#919190;stroke-width:2.7399;stroke-miterlimit:10;}
	.st6{clip-path:url(#SVGID_2_);fill-rule:evenodd;clip-rule:evenodd;fill:#6DC3E8;}
	
		.st7{clip-path:url(#SVGID_2_);fill-rule:evenodd;clip-rule:evenodd;fill:none;stroke:#1373B9;stroke-linejoin:bevel;stroke-miterlimit:10;}
	.st8{clip-path:url(#SVGID_4_);fill-rule:evenodd;clip-rule:evenodd;fill:#6DC3E8;}
	.st9{clip-path:url(#SVGID_4_);fill-rule:evenodd;clip-rule:evenodd;fill:#1373B9;}
	.st10{clip-path:url(#SVGID_6_);fill-rule:evenodd;clip-rule:evenodd;fill:#6DC3E8;}
	.st11{clip-path:url(#SVGID_6_);fill-rule:evenodd;clip-rule:evenodd;fill:#1373B9;}
	.st12{fill-rule:evenodd;clip-rule:evenodd;fill:#2B3682;}
	.st13{fill-rule:evenodd;clip-rule:evenodd;fill:#4A68B0;}
	.st14{fill:#4A68B0;}
	.st15{fill:#EE5129;}
	.st16{fill-rule:evenodd;clip-rule:evenodd;fill:#E71F29;}
	.st17{fill-rule:evenodd;clip-rule:evenodd;fill:#DF5C26;}
	.st18{fill-rule:evenodd;clip-rule:evenodd;fill:#AEAEAE;}
	.st19{fill-rule:evenodd;clip-rule:evenodd;fill:#23BCEE;}
	.st20{fill-rule:evenodd;clip-rule:evenodd;fill:#1373B9;}
	.st21{fill:#231F20;}
	.st22{fill:#672A7A;}
	.st23{fill:none;stroke:#231F20;stroke-width:2.7979;stroke-miterlimit:10;}
	.st24{fill:#2C3E58;}
	.st25{fill:#FFFFFF;}
	.st26{fill:#478AA9;}
	.st27{fill:#334D63;}
	.st28{fill:#447995;}
	.st29{fill:#2C3E50;}
	.st30{fill:#395B71;}
	.st31{fill:#ECEDF0;}
	.st32{fill:#D9DCE1;}
	.st33{fill:#C5CAD1;}
	.st34{fill:#B2B9C2;}
	.st35{fill:#9FA7B3;}
	.st36{fill:#8C96A4;}
	.st37{fill:#798495;}
	.st38{fill:#667386;}
	.st39{fill:#526176;}
	.st40{fill:#3F5067;}
	.st41{fill:#619BB5;}
	.st42{fill:#7CABC2;}
	.st43{fill:#96BCCE;}
	.st44{fill:#B0CDDA;}
	.st45{fill:#CADEE6;}
	.st46{fill:#E5EEF3;}
	.st47{fill-rule:evenodd;clip-rule:evenodd;fill:none;stroke:#ACACAC;stroke-width:3;stroke-miterlimit:10;}
	.st48{fill-rule:evenodd;clip-rule:evenodd;fill:#6DC1E8;}
	.st49{fill-rule:evenodd;clip-rule:evenodd;fill:none;stroke:#ACACAC;stroke-width:6;stroke-miterlimit:10;}
	.st50{fill-rule:evenodd;clip-rule:evenodd;fill:none;stroke:#C7C7C7;stroke-width:3;stroke-miterlimit:10;}
	.st51{fill-rule:evenodd;clip-rule:evenodd;fill:#96BCCE;}
	.st52{fill-rule:evenodd;clip-rule:evenodd;fill:#447995;}
	.st53{fill-rule:evenodd;clip-rule:evenodd;fill:#7DB912;}
	.st54{fill-rule:evenodd;clip-rule:evenodd;fill:#757575;}
	.st55{fill:none;stroke:#C7C7C7;stroke-miterlimit:10;}
	.st56{fill-rule:evenodd;clip-rule:evenodd;fill:#ACACAC;}
	.st57{fill-rule:evenodd;clip-rule:evenodd;fill:none;stroke:#E3E3E3;stroke-width:3;stroke-miterlimit:10;}
	.st58{fill-rule:evenodd;clip-rule:evenodd;fill:none;stroke:#C7C7C7;stroke-width:6;stroke-miterlimit:10;}
	.st59{fill-rule:evenodd;clip-rule:evenodd;fill:#00B194;}
	.st60{fill-rule:evenodd;clip-rule:evenodd;fill:none;stroke:#C7C7C7;stroke-miterlimit:10;}
	.st61{fill:none;stroke:#FE8B0C;stroke-width:2;stroke-miterlimit:10;}
	.st62{fill:#FE8B0C;}
	.st63{fill-rule:evenodd;clip-rule:evenodd;fill:none;stroke:#C7C7C7;stroke-width:2;stroke-miterlimit:10;}
	.st64{fill:none;stroke:#919190;stroke-width:2;stroke-miterlimit:10;}
	.st65{opacity:0.3;}
	.st66{fill-rule:evenodd;clip-rule:evenodd;fill:#8DBD37;}
	.st67{fill-rule:evenodd;clip-rule:evenodd;fill:#9DC15C;}
	.st68{fill-rule:evenodd;clip-rule:evenodd;fill:#ADC682;}
	.st69{fill-rule:evenodd;clip-rule:evenodd;fill:#BDCAA7;}
	.st70{fill-rule:evenodd;clip-rule:evenodd;fill:#CDCECC;}
	.st71{fill-rule:evenodd;clip-rule:evenodd;fill:#A1C0CE;}
	.st72{fill-rule:evenodd;clip-rule:evenodd;fill:#ACC3CD;}
	.st73{fill-rule:evenodd;clip-rule:evenodd;fill:#B7C7CD;}
	.st74{fill-rule:evenodd;clip-rule:evenodd;fill:#C2CACC;}
	.st75{fill-rule:evenodd;clip-rule:evenodd;fill:none;stroke:#919190;stroke-width:3;stroke-miterlimit:10;}
	.st76{fill-rule:evenodd;clip-rule:evenodd;fill:#FFFFFF;}
	.st77{fill:none;stroke:#C7C7C7;stroke-width:3;stroke-miterlimit:10;}
	.st78{fill:#C7C7C7;stroke:#FFFFFF;stroke-miterlimit:10;}
	.st79{fill-rule:evenodd;clip-rule:evenodd;fill:#909090;}
	.st80{fill:#909090;}
	.st81{fill:#FFFFFF;stroke:#AEAEAE;stroke-miterlimit:10;}
	.st82{opacity:0.5;}
	.st83{fill-rule:evenodd;clip-rule:evenodd;fill:none;stroke:#C7C7C7;stroke-width:0.964;stroke-miterlimit:10;}
	.st84{fill-rule:evenodd;clip-rule:evenodd;fill:none;stroke:#7DB912;stroke-width:0.964;stroke-miterlimit:10;}
	.st85{fill-rule:evenodd;clip-rule:evenodd;fill:none;stroke:#4A68B0;stroke-width:0.964;stroke-miterlimit:10;}
	.st86{fill:none;stroke:#FFFFFF;stroke-width:0.816;stroke-miterlimit:10;}
	.st87{fill:#7DB912;}
	.st88{fill:#FFFFFF;stroke:#AEAEAE;stroke-width:1.021;stroke-miterlimit:10;}
	.st89{fill:#FFFFFF;stroke:#C7C7C7;stroke-miterlimit:10;}
	.st90{fill:#FFFFFF;stroke:#4A68B0;stroke-miterlimit:10;}
	.st91{fill:#FFFFFF;stroke:#7DB912;stroke-miterlimit:10;}
	.st92{fill:#FFFFFF;stroke:#AEAEAE;stroke-width:1.395;stroke-miterlimit:10;}
	.st93{fill-rule:evenodd;clip-rule:evenodd;fill:none;stroke:#C6C6C6;stroke-width:1.6878;stroke-miterlimit:10;}
	.st94{fill:#7FBA42;}
	.st95{fill:#4B68AF;}
	.st96{fill:#C6C6C6;}
	.st97{fill:none;stroke:#FFFFFF;stroke-width:1.6285;stroke-miterlimit:10;}
	.st98{fill:#FFFFFF;stroke:#AEAEAE;stroke-width:1.4159;stroke-miterlimit:10;}
	.st99{fill:#FFFFFF;stroke:#7DB912;stroke-width:2;stroke-miterlimit:10;}
	.st100{fill:#7DB912;stroke:#7DB912;stroke-width:0.75;stroke-miterlimit:10;}
	.st101{fill:none;stroke:#FFFFFF;stroke-width:2;stroke-miterlimit:10;}
</style>
<rect x="126.547" y="67.717" class="st98" width="34.614" height="44.063"/>
<rect x="132.143" y="100.828" class="st96" width="1.501" height="1.521"/>
<rect x="132.143" y="96.9" class="st96" width="1.501" height="1.521"/>
<rect x="132.143" y="92.971" class="st96" width="1.501" height="1.521"/>
<rect x="132.143" y="89.042" class="st96" width="1.501" height="1.521"/>
<rect x="132.143" y="85.114" class="st96" width="1.501" height="1.521"/>
<rect x="132.143" y="81.185" class="st96" width="1.501" height="1.521"/>
<rect x="132.143" y="77.257" class="st96" width="1.501" height="1.521"/>
<rect x="132.143" y="73.328" class="st96" width="1.501" height="1.521"/>
<rect x="132.143" y="104.828" class="st96" width="1.501" height="1.521"/>
<g>
	<rect x="135.187" y="73.132" class="st96" width="18.083" height="1.5"/>
</g>
<g>
	<rect x="137.325" y="77.267" class="st94" width="16.612" height="1.5"/>
</g>
<rect x="137.325" y="81.196" class="st94" width="14.076" height="1.5"/>
<rect x="137.325" y="85.124" class="st95" width="12.588" height="1.5"/>
<g>
	<rect x="137.325" y="89.052" class="st95" width="13.75" height="1.5"/>
</g>
<g>
	<rect x="135.187" y="92.981" class="st96" width="18.083" height="1.5"/>
</g>
<g>
	<rect x="137.325" y="96.91" class="st96" width="17.82" height="1.5"/>
</g>
<g>
	<rect x="135.187" y="100.838" class="st96" width="18.083" height="1.5"/>
</g>
<g>
	<rect x="135.187" y="104.839" class="st96" width="18.083" height="1.5"/>
</g>
<g>
	<path class="st0" d="M143.663,127.775c-11.081,0-20.064,8.983-20.064,20.064s8.983,20.064,20.064,20.064
		c11.081,0,20.063-8.983,20.063-20.064S154.744,127.775,143.663,127.775z M143.663,161.354c-7.465,0-13.516-6.051-13.516-13.516
		s6.051-13.516,13.516-13.516c7.464,0,13.516,6.051,13.516,13.516S151.127,161.354,143.663,161.354z"/>
	<g>
		<rect x="64.965" y="63.088" class="st1" width="6" height="67"/>
	</g>
	<path class="st0" d="M67.965,127.775c-11.081,0-20.064,8.983-20.064,20.064s8.983,20.064,20.064,20.064
		c11.081,0,20.063-8.983,20.063-20.064S79.046,127.775,67.965,127.775z M67.965,161.354c-7.465,0-13.516-6.051-13.516-13.516
		c0-7.464,6.051-13.516,13.516-13.516c7.464,0,13.516,6.051,13.516,13.516C81.481,155.303,75.429,161.354,67.965,161.354z"/>
	<path class="st0" d="M67.965,26.775c-11.081,0-20.064,8.983-20.064,20.064s8.983,20.064,20.064,20.064
		c11.081,0,20.063-8.983,20.063-20.064S79.046,26.775,67.965,26.775z M67.965,60.354c-7.465,0-13.516-6.051-13.516-13.516
		c0-7.464,6.051-13.516,13.516-13.516c7.464,0,13.516,6.051,13.516,13.516C81.481,54.303,75.429,60.354,67.965,60.354z"/>
	<rect x="140.64" y="114.381" class="st1" width="6.046" height="17.958"/>
	<path class="st1" d="M123.276,49.931c10.391,0,15.89,1.915,17.113,12.381l0.025,3.217h6.052L146.43,62.2
		c-2.018-18.431-15.743-18.367-22.363-18.318l-13.37,0.003l8.246-7.662l-4.28-4.28L98.57,46.903l15.912,14.796l4.281-4.279
		l-8.056-7.488H123.276z"/>
</g>
<path class="st95" d="M129.209,104.893H103.8c-0.516,0-0.935-0.418-0.935-0.935V85.374c0-0.516,0.418-0.935,0.935-0.935h25.408
	c0.516,0,0.935,0.418,0.935,0.935v18.584C130.143,104.474,129.725,104.893,129.209,104.893z"/>
<polygon class="st95" points="117.387,103.16 117.387,113.881 126.343,103.16 "/>
<path class="st95" d="M115.906,127.283c-1.47-1.47-3.191-2.599-5.066-3.348c2.1-1.659,3.45-4.227,3.45-7.105
	c0-4.991-4.06-9.051-9.051-9.051c-4.991,0-9.051,4.06-9.051,9.051c0,2.878,1.35,5.446,3.45,7.105
	c-1.875,0.749-3.595,1.877-5.066,3.348c-2.849,2.849-4.418,6.637-4.418,10.667h3.017c0-6.654,5.414-12.068,12.068-12.068
	c6.654,0,12.068,5.414,12.068,12.068h3.017C120.325,133.92,118.756,130.132,115.906,127.283z M99.206,116.83
	c0-3.327,2.707-6.034,6.034-6.034c3.327,0,6.034,2.707,6.034,6.034c0,3.327-2.707,6.034-6.034,6.034
	C101.912,122.864,99.206,120.157,99.206,116.83z"/>
<g>
	<circle class="st99" cx="158.574" cy="64.559" r="7.499"/>
	<g>
		<polygon class="st100" points="157.845,67.918 156.727,67.893 154.756,64.938 155.891,64.181 157.32,66.324 161.291,60.898 
			162.391,61.703 		"/>
	</g>
</g>
<g>
	<path class="st94" d="M158.113,97.335h25.408c0.516,0,0.935-0.418,0.935-0.935V77.817c0-0.516-0.418-0.935-0.935-0.935h-25.408
		c-0.516,0-0.935,0.418-0.935,0.935v18.584C157.179,96.917,157.597,97.335,158.113,97.335z"/>
	<line class="st101" x1="162.635" y1="82.71" x2="179.403" y2="82.71"/>
	<line class="st101" x1="162.635" y1="87.053" x2="175.533" y2="87.053"/>
	<polygon class="st94" points="169.935,95.603 169.935,106.324 160.979,95.603 	"/>
	<path class="st94" d="M191.728,119.64c-1.47-1.47-3.191-2.599-5.066-3.348c2.1-1.659,3.45-4.227,3.45-7.105
		c0-4.991-4.06-9.051-9.051-9.051s-9.051,4.06-9.051,9.051c0,2.878,1.35,5.446,3.45,7.105c-1.875,0.749-3.595,1.877-5.066,3.348
		c-2.849,2.849-4.418,6.637-4.418,10.667h3.017c0-6.654,5.414-12.068,12.068-12.068c6.654,0,12.068,5.414,12.068,12.068h3.017
		C196.146,126.278,194.577,122.49,191.728,119.64z M175.027,109.188c0-3.327,2.707-6.034,6.034-6.034s6.034,2.707,6.034,6.034
		c0,3.327-2.707,6.034-6.034,6.034S175.027,112.515,175.027,109.188z"/>
</g>
<g>
	<g>
		<polygon class="st25" points="114.216,98.033 110.884,94.701 114.285,91.299 113.077,90.091 108.466,94.701 113.007,99.242 		"/>
	</g>
	<g>
		<polygon class="st25" points="118.793,98.033 122.125,94.701 118.724,91.299 119.932,90.091 124.543,94.701 120.002,99.242 		"/>
	</g>
</g>
</svg>
